<?xml version="1.0" encoding="utf-8"?>
<!-- Generator: Adobe Illustrator 16.0.0, SVG Export Plug-In . SVG Version: 6.00 Build 0)  -->
<!DOCTYPE svg PUBLIC "-//W3C//DTD SVG 1.1//EN" "http://www.w3.org/Graphics/SVG/1.1/DTD/svg11.dtd">
<svg version="1.1" xmlns="http://www.w3.org/2000/svg" xmlns:xlink="http://www.w3.org/1999/xlink" x="0px" y="0px"
	 width="595.28px" height="841.89px" viewBox="0 0 595.28 841.89" enable-background="new 0 0 595.28 841.89" xml:space="preserve">
<g id="Layer_2">
</g>
<g id="Layer_1">
</g>
<g id="Layer_3">
</g>
<g id="Layer_4">
	<g>
		<path d="M199.949,141.141c1.153-0.206,2.33-0.333,3.526-0.399c-2.877-9.428-2.593-16.954,1.248-21.398
			c6.387-5.614,19.253-3.816,34.993,4.33c1.946,1.007,1.944,1.011,1.944,1.011s-0.009-0.003,0.65-2.095
			c5.286-16.773,13.073-27.111,21.481-27.812c8.534,0.457,16.378,10.861,21.804,27.824c-5.323,3.249-10.904,7.113-16.61,11.507v1.62
			c5.979-4.377,11.784-8.082,17.262-11.04c1.5,5.02,2.787,10.581,3.835,16.577c0.453-0.086,0.906-0.17,1.365-0.237
			c-0.877-6.191-1.971-12.015-3.263-17.354c15.727-8.104,28.563-9.943,34.964-4.37c5.586,6.397,3.748,19.238-4.359,34.973
			c-2.21-0.535-4.509-1.032-6.874-1.499c0.074,0.609,0.123,1.228,0.123,1.867c0,0.002,0,0.003,0,0.005
			c1.98,0.493,3.894,1.015,5.735,1.565c-2.17,4.02-4.745,8.216-7.687,12.526v2.451c3.681-4.91,6.961-9.715,9.774-14.324
			c16.854,5.392,27.232,13.169,27.812,21.641c-0.202,2.947-1.594,5.81-4.029,8.519c1.508-0.846,3.111-1.563,4.811-2.138
			c1.305-0.44,2.651-0.768,4.019-1.031c0.649-1.429,1.079-2.959,1.201-4.601c0,0,0.04-0.5,0.035-0.749
			c0.005-0.248-0.035-0.748-0.035-0.748c-0.372-5.009-3.557-8.994-7.357-12.154c-4.594-3.417-11.024-6.478-18.977-8.978
			c-1.994-0.627-4.082-1.223-6.255-1.786c1.139-1.935,2.193-3.832,3.16-5.685c3.855-7.394,6.238-14.107,7.073-19.768
			c0.451-4.922-0.116-9.993-3.394-13.796c0,0-0.338-0.394-0.522-0.572c-0.166-0.172-0.534-0.486-0.534-0.486
			c-3.805-3.279-8.873-3.846-13.797-3.394c-5.663,0.835-12.376,3.218-19.767,7.074c-1.854,0.967-3.752,2.022-5.688,3.161
			c-0.563-2.174-1.16-4.262-1.787-6.256c-2.497-7.954-5.561-14.386-8.973-18.978c-3.163-3.801-7.147-6.985-12.155-7.358
			c0,0-0.5-0.04-0.749-0.036c-0.248-0.004-0.749,0.036-0.749,0.036c-5.008,0.373-8.993,3.557-12.154,7.358
			c-3.412,4.592-6.474,11.024-8.975,18.978c-0.627,1.994-1.223,4.083-1.786,6.256c-1.935-1.14-3.833-2.195-5.688-3.161
			c-7.391-3.856-14.102-6.238-19.765-7.074c-4.925-0.453-9.995,0.114-13.799,3.394c0,0-0.443,0.382-0.642,0.591
			c-0.148,0.146-0.416,0.465-0.416,0.465c-3.279,3.803-3.845,8.875-3.392,13.796C197.112,132.928,198.238,136.875,199.949,141.141z"
			/>
		<path d="M324.837,209.036l-3.069,0.024c5.488,12.833,6.2,23.153,1.37,28.667c-6.406,5.56-19.235,3.716-34.953-4.383
			c0.372-1.536,0.723-3.122,1.062-4.734c-0.319,0.134-0.639,0.271-0.956,0.393c-0.406,0.156-0.813,0.301-1.22,0.439
			c-0.268,0.98-0.541,1.944-0.823,2.887c-1.061-0.572-2.137-1.182-3.22-1.809c-0.972,0.187-1.939,0.316-2.904,0.399
			c1.85,1.231,3.676,2.4,5.472,3.496c-5.391,16.855-13.169,27.235-21.64,27.815c-8.471-0.581-16.249-10.96-21.641-27.815
			c5.977-3.646,12.278-8.063,18.717-13.144c-0.194-0.369-0.387-0.737-0.558-1.121c-6.527,4.882-12.859,8.966-18.811,12.179
			c-1.32-4.416-2.476-9.248-3.449-14.427h-1.477c0.828,5.481,1.829,10.655,2.987,15.442c-15.722,8.102-28.555,9.944-34.958,4.379
			c-5.594-6.395-3.758-19.24,4.354-34.981c1.488,0.36,3.025,0.7,4.585,1.03l0.33-1.875l0.001-0.007
			c-1.329-0.351-2.638-0.71-3.901-1.088c2.227-4.125,4.875-8.434,7.914-12.863c-0.648,0.08-1.29,0.142-1.925,0.184
			c-2.994,4.111-5.703,8.139-8.076,12.026c-12.494-3.997-21.424-9.305-25.448-15.232c-1.949,0.707-3.788,1.303-5.507,1.791
			c1.251,1.741,2.812,3.303,4.496,4.701c4.595,3.417,11.028,6.479,18.981,8.981c1.994,0.626,4.081,1.222,6.254,1.785
			c-1.139,1.936-2.194,3.833-3.161,5.687c-3.855,7.389-6.238,14.104-7.074,19.767c-0.453,4.918,0.113,9.988,3.391,13.794
			c0,0,0.175,0.221,0.274,0.321c0.24,0.261,0.786,0.736,0.786,0.736c3.804,3.279,8.873,3.847,13.798,3.396
			c5.663-0.838,12.374-3.219,19.765-7.079c1.854-0.966,3.751-2.021,5.687-3.159c0.563,2.174,1.159,4.263,1.787,6.258
			c2.5,7.954,5.562,14.386,8.975,18.978c3.161,3.804,7.146,6.985,12.154,7.358c0,0,0.5,0.04,0.749,0.036
			c0.248,0.004,0.749-0.036,0.749-0.036c5.008-0.373,8.992-3.554,12.155-7.358c3.412-4.592,6.476-11.024,8.973-18.978
			c0.628-1.995,1.224-4.083,1.788-6.258c1.935,1.138,3.833,2.193,5.687,3.159c7.391,3.859,14.104,6.24,19.767,7.079
			c4.923,0.452,9.991-0.117,13.795-3.396c0,0,0.545-0.474,0.784-0.734c0.1-0.101,0.275-0.324,0.275-0.324
			c3.276-3.805,3.844-8.875,3.393-13.793C330.53,222.269,328.337,215.959,324.837,209.036z"/>
	</g>
	<path d="M218.184,212.051l1.611-9.146h19.866l-1.643,9.146H218.184z"/>
	<g>
		<path d="M129.169,146.523h3.87l-1.608,7.297c2.581-2.352,5.116-4.155,7.602-5.414c2.49-1.254,4.764-1.884,6.817-1.884
			c2.466,0,4.365,0.6,5.688,1.801c1.326,1.195,2.057,2.984,2.192,5.358c2.717-2.374,5.306-4.163,7.756-5.358
			c2.459-1.201,4.734-1.801,6.838-1.801c2.352,0,4.245,0.729,5.687,2.189c1.435,1.459,2.152,3.384,2.152,5.777
			c0,0.412-0.038,0.894-0.114,1.456c-0.083,0.558-0.205,1.166-0.364,1.826l-1.812,8.373c-0.367,1.638-0.645,3.072-0.84,4.312
			c-0.192,1.237-0.293,2.216-0.293,2.942c0,1.227,0.271,2.107,0.808,2.639c0.536,0.535,1.431,0.799,2.689,0.799
			c0.521,0,1.161-0.075,1.917-0.234c0.752-0.16,1.714-0.411,2.876-0.75v3.417c-2.923,1.075-5.531,1.88-7.826,2.414
			c-2.294,0.539-4.275,0.806-5.943,0.806c-1.941,0-3.488-0.541-4.641-1.622c-1.154-1.08-1.733-2.544-1.733-4.391
			c0-0.683,0.042-1.338,0.121-1.963c0.083-0.625,0.201-1.248,0.361-1.861l2.807-11.646c0.163-0.658,0.279-1.256,0.36-1.804
			c0.08-0.542,0.121-0.986,0.121-1.329c0-1.289-0.308-2.246-0.925-2.856c-0.619-0.617-1.566-0.922-2.845-0.922
			c-0.932,0-2.065,0.274-3.39,0.816c-1.324,0.546-2.672,1.294-4.041,2.248l-4.145,24.648h-11.508l4.144-21.515
			c0.137-0.795,0.239-1.39,0.309-1.788c0.069-0.397,0.102-0.687,0.102-0.867c0-1.112-0.324-1.98-0.976-2.606
			c-0.65-0.624-1.56-0.936-2.724-0.936c-1.026,0-2.156,0.243-3.391,0.735c-1.232,0.485-2.568,1.218-4.005,2.194l-4.179,24.783
			h-11.375l5.31-28.055l-5.722-0.583v-3.221L129.169,146.523z"/>
		<path d="M215.144,148.475l4.01-1.951h4.76l-4.625,22.659c-0.161,0.702-0.277,1.385-0.357,2.043
			c-0.083,0.655-0.123,1.268-0.123,1.836c0,1.272,0.291,2.265,0.875,2.977c0.583,0.718,1.39,1.073,2.416,1.073
			c0.687,0,1.444-0.097,2.277-0.291c0.833-0.194,1.788-0.498,2.862-0.906l-0.139,3.628c-2.398,0.938-4.689,1.641-6.869,2.107
			c-2.18,0.468-4.267,0.703-6.249,0.703c-2.125,0-3.736-0.456-4.832-1.371c-1.099-0.913-1.646-2.251-1.646-4.01
			c-2.261,1.808-4.464,3.152-6.607,4.043c-2.152,0.892-4.25,1.337-6.306,1.337c-3.379,0-6.044-1.199-7.996-3.594
			c-1.953-2.395-2.932-5.68-2.932-9.86c0-3.562,0.655-6.807,1.971-9.725c1.312-2.915,3.292-5.556,5.945-7.916
			c1.712-1.521,3.734-2.693,6.079-3.507c2.339-0.82,4.834-1.229,7.481-1.229c1.419,0,2.913,0.149,4.49,0.445
			C211.207,147.267,213.042,147.77,215.144,148.475z M208.024,150.601c-0.141-0.045-0.272-0.073-0.398-0.086
			c-0.123-0.011-0.324-0.02-0.602-0.02c-3.081,0-5.687,1.638-7.824,4.913c-2.135,3.271-3.204,7.323-3.204,12.144
			c0,2.604,0.451,4.549,1.354,5.826c0.903,1.279,2.254,1.922,4.06,1.922c0.707,0,1.573-0.171,2.603-0.511s2.284-0.874,3.771-1.598
			l3.252-18.378L208.024,150.601z"/>
		<path d="M246.522,130.188h4.074l-6.368,32.297l0.133-0.135c10.232-10.823,16.755-16.237,19.56-16.237
			c1.444,0,2.708,0.6,3.802,1.799c1.097,1.199,1.648,2.583,1.648,4.162c0,1.939-0.669,3.584-2.005,4.936
			c-1.338,1.341-3.261,2.315-5.774,2.908l-2.672-5.41l-4.209,3.252l5.202,12.057c1.392,3.242,2.606,5.374,3.632,6.389
			c1.029,1.016,2.315,1.523,3.873,1.523c0.338,0,0.816-0.047,1.419-0.137c0.604-0.088,1.375-0.229,2.312-0.412v3.223
			c-2.739,0.685-5.106,1.19-7.088,1.521c-1.989,0.331-3.632,0.499-4.935,0.499c-2.374,0-4.214-0.547-5.514-1.644
			c-1.303-1.099-2.75-3.768-4.349-8.018l-3.188-8.631l-2.776,3.495l-2.736,14.182h-11.234l8.699-44.767l-6.096-0.689l-0.21-2.741
			L246.522,130.188z"/>
		<path d="M284.41,166.081v0.463c0,2.998,0.679,5.274,2.052,6.831c1.37,1.556,3.366,2.334,5.993,2.334
			c1.714,0,3.571-0.409,5.582-1.232c2.011-0.823,4.079-2.021,6.203-3.601v5.382c-3.29,2.192-6.347,3.817-9.18,4.879
			c-2.835,1.061-5.503,1.593-8.013,1.593c-4.228,0-7.617-1.343-10.177-4.036c-2.556-2.689-3.835-6.259-3.835-10.712
			c0-3.178,0.669-6.146,2.003-8.905c1.338-2.757,3.304-5.228,5.908-7.411c1.99-1.653,4.295-2.925,6.919-3.812
			c2.627-0.887,5.403-1.329,8.324-1.329c3.101,0,5.548,0.726,7.33,2.175c1.781,1.451,2.672,3.435,2.672,5.947
			c0,3.606-1.826,6.415-5.48,8.425c-3.655,2.008-8.794,3.01-15.414,3.01H284.41z M284.887,162.45
			c3.47-0.341,6.337-1.315,8.597-2.925c2.262-1.612,3.39-3.421,3.39-5.431c0-1.05-0.302-1.873-0.904-2.466
			c-0.608-0.594-1.443-0.891-2.518-0.891c-1.971,0-3.719,1.038-5.262,3.118C286.652,155.935,285.549,158.799,284.887,162.45z"/>
	</g>
	<g>
		<path d="M294.945,213.661v4.966c-3.015,2.192-5.935,3.835-8.754,4.918s-5.591,1.627-8.308,1.627c-4.086,0-7.351-1.313-9.794-3.935
			c-2.445-2.62-3.667-6.124-3.667-10.505c0-2.776,0.473-5.42,1.424-7.937c0.946-2.523,2.298-4.713,4.059-6.578
			c2.1-2.248,4.616-3.994,7.55-5.242c2.936-1.251,5.979-1.874,9.129-1.874c3.129,0,5.519,0.546,7.159,1.645
			c1.645,1.095,2.467,2.693,2.467,4.793c0,1.897-0.713,3.452-2.139,4.662c-1.43,1.206-3.345,1.906-5.739,2.086l-5.102-9.042
			c-2.079,1.494-3.737,3.67-4.97,6.526c-1.23,2.852-1.849,5.954-1.849,9.305c0,2.856,0.636,5.079,1.9,6.675
			c1.267,1.602,3.043,2.398,5.329,2.398c0.75,0,1.536-0.094,2.363-0.275c0.819-0.184,1.745-0.466,2.771-0.854
			c0.78-0.322,1.698-0.773,2.759-1.355C292.599,215.084,293.736,214.415,294.945,213.661z"/>
		<path d="M325.602,203.183l-2.124-6.852c-2.558,1.093-4.582,2.628-6.064,4.609c-1.483,1.982-2.477,4.476-2.978,7.48l-2.674,15.963
			h-11.477l5.585-28.259l-6.167-0.515v-3.083l14.32-3.424h3.354l-1.816,9.59c2.969-3.675,5.47-6.268,7.504-7.775
			c2.03-1.509,3.996-2.261,5.89-2.261c1.783,0,3.207,0.585,4.281,1.764c1.075,1.179,1.61,2.724,1.61,4.641
			c0,2.445-0.834,4.403-2.497,5.876C330.683,202.412,328.432,203.158,325.602,203.183z"/>
		<path d="M346.871,208.66v0.461c0,2.998,0.686,5.278,2.055,6.831c1.369,1.556,3.369,2.332,5.996,2.332
			c1.714,0,3.573-0.409,5.583-1.232c2.009-0.823,4.075-2.019,6.2-3.597v5.38c-3.287,2.19-6.35,3.817-9.181,4.881
			c-2.832,1.061-5.504,1.592-8.013,1.592c-4.229,0-7.618-1.346-10.176-4.037c-2.558-2.691-3.838-6.261-3.838-10.713
			c0-3.176,0.667-6.148,2.003-8.905c1.338-2.759,3.309-5.231,5.911-7.406c1.989-1.66,4.294-2.932,6.917-3.819
			c2.631-0.885,5.407-1.326,8.325-1.326c3.105,0,5.549,0.726,7.33,2.175c1.783,1.449,2.672,3.429,2.672,5.942
			c0,3.611-1.823,6.415-5.478,8.429c-3.654,2.007-8.794,3.012-15.414,3.012H346.871z M347.353,205.028
			c3.469-0.339,6.335-1.317,8.599-2.927c2.26-1.611,3.388-3.418,3.388-5.427c0-1.052-0.3-1.875-0.906-2.469
			c-0.606-0.591-1.443-0.891-2.517-0.891c-1.967,0-3.717,1.04-5.261,3.118C349.116,198.511,348.015,201.375,347.353,205.028z"/>
		<path d="M403.867,191.054l4.012-1.951h4.761l-4.627,22.659c-0.158,0.702-0.275,1.385-0.357,2.042
			c-0.083,0.657-0.117,1.27-0.117,1.837c0,1.272,0.291,2.263,0.869,2.977c0.584,0.717,1.391,1.072,2.416,1.072
			c0.687,0,1.445-0.095,2.278-0.289c0.834-0.196,1.787-0.496,2.861-0.91l-0.139,3.632c-2.396,0.938-4.686,1.638-6.869,2.105
			c-2.18,0.47-4.263,0.702-6.248,0.702c-2.125,0-3.733-0.456-4.832-1.367c-1.095-0.913-1.646-2.251-1.646-4.004
			c-2.26,1.8-4.464,3.147-6.609,4.039c-2.146,0.891-4.244,1.333-6.299,1.333c-3.385,0-6.05-1.195-8.004-3.59
			c-1.951-2.396-2.924-5.682-2.924-9.858c0-3.568,0.653-6.808,1.967-9.726c1.311-2.917,3.296-5.558,5.942-7.919
			c1.712-1.52,3.741-2.689,6.08-3.505c2.34-0.82,4.835-1.227,7.484-1.227c1.416,0,2.913,0.149,4.49,0.444
			C399.929,189.843,401.77,190.346,403.867,191.054z M396.745,193.175c-0.133-0.043-0.27-0.073-0.391-0.085
			c-0.129-0.007-0.326-0.016-0.604-0.016c-3.081,0-5.689,1.636-7.824,4.909c-2.138,3.273-3.203,7.32-3.203,12.146
			c0,2.604,0.448,4.547,1.348,5.826c0.904,1.28,2.262,1.92,4.065,1.92c0.703,0,1.575-0.17,2.599-0.508
			c1.031-0.341,2.288-0.874,3.771-1.598l3.252-18.38L396.745,193.175z"/>
		<path d="M432.44,180.675h5.959l-1.885,9.971h9.521v5.171h-10.446l-2.947,15.582c-0.158,0.894-0.275,1.729-0.357,2.52
			c-0.083,0.789-0.119,1.49-0.119,2.109c0,1.095,0.318,1.946,0.958,2.551c0.636,0.605,1.555,0.91,2.74,0.91
			c0.661,0,1.511-0.116,2.551-0.343c1.043-0.229,2.35-0.584,3.923-1.064v3.975c-3.49,1.026-6.377,1.776-8.646,2.24
			c-2.274,0.47-4.076,0.702-5.396,0.702c-2.513,0-4.446-0.595-5.809-1.795c-1.358-1.199-2.038-2.904-2.038-5.122
			c0-0.572,0.036-1.175,0.104-1.814c0.069-0.641,0.193-1.437,0.376-2.398l3.359-18.051h-5.037v-3.015l7.297-3.766L432.44,180.675z"
			/>
		<path d="M458.196,208.66v0.461c0,2.998,0.683,5.278,2.055,6.831c1.371,1.556,3.369,2.332,5.996,2.332
			c1.71,0,3.572-0.409,5.583-1.232c2.008-0.823,4.075-2.019,6.2-3.597v5.38c-3.291,2.19-6.35,3.817-9.179,4.881
			c-2.837,1.061-5.504,1.592-8.015,1.592c-4.227,0-7.618-1.346-10.176-4.037c-2.558-2.691-3.836-6.261-3.836-10.713
			c0-3.176,0.67-6.148,2.001-8.905c1.336-2.759,3.305-5.231,5.911-7.406c1.985-1.66,4.29-2.932,6.917-3.819
			c2.631-0.885,5.401-1.326,8.321-1.326c3.109,0,5.554,0.726,7.334,2.175c1.781,1.449,2.672,3.429,2.672,5.942
			c0,3.611-1.826,6.415-5.483,8.429c-3.652,2.007-8.788,3.012-15.413,3.012H458.196z M458.676,205.028
			c3.471-0.339,6.341-1.317,8.601-2.927c2.26-1.611,3.389-3.418,3.389-5.427c0-1.052-0.303-1.875-0.907-2.469
			c-0.605-0.591-1.449-0.891-2.52-0.891c-1.964,0-3.719,1.04-5.258,3.118C460.441,198.511,459.341,201.375,458.676,205.028z"/>
	</g>
</g>
</svg>
